<svg id="logo.fw-Page%201" viewBox="0 0 40 40" style="background-color:#ffffff" version="1.1" xmlns="http://www.w3.org/2000/svg" xmlns:xlink="http://www.w3.org/1999/xlink" xml:space="preserve" x="0px" y="0px" width="200px" height="200px">
	<g id="Layer%201">
		<rect class="logo" x="0" y="0" width="200" height="200" fill="#FC4349"></rect>
		<g>
			<path d="M 17.025 28.8062 C 16.6141 28.9219 16.1781 29.0156 15.7172 29.0891 C 15.2547 29.1641 14.7906 29.2 14.325 29.2 C 13.3094 29.2 12.6312 28.9375 12.2906 28.4109 C 12.0969 28.1016 12 27.6266 12 26.9859 L 12 18.9 L 16.7859 18.9 L 16.7859 15.6 L 12 15.6 L 12 11 L 7.9 11 L 7.9 15.6 L 4.8063 15.6 L 4.8063 18.9 L 7.9 18.9 L 7.9 27.5078 C 7.9 28.5484 8.0328 29.3703 8.2984 29.9766 C 8.6672 30.8234 9.2984 31.4719 10.1922 31.9234 C 11.0859 32.3734 12.2297 32.6 13.6234 32.6 C 14.1703 32.6 14.7594 32.5594 15.3922 32.4813 C 16.0234 32.4 16.5688 32.2922 17.025 32.1563 L 17.025 28.8062 L 17.025 28.8062 Z" fill="#ffffff"></path>
			<path d="M 24.4 7.5 L 20.3 7.5 L 20.3 32.2 L 24.4 32.2 L 24.4 20.775 C 24.9516 20.0688 25.5578 19.5313 26.2172 19.1656 C 26.8766 18.8 27.5969 18.6125 28.375 18.6 C 28.9375 18.6 29.4391 18.7031 29.8797 18.9094 C 30.3203 19.1156 30.6578 19.4688 30.8953 19.9703 C 31.0078 20.2109 31.0859 20.4938 31.1313 20.8188 C 31.1766 21.1438 31.2 21.5641 31.2 22.0766 L 31.2 32.2 L 35.3 32.2 L 35.3 21.5344 C 35.3 20.7469 35.2484 20.0797 35.1453 19.5313 C 35.0422 18.9844 34.8844 18.4937 34.6688 18.0594 C 34.4188 17.5578 34.1078 17.1234 33.7391 16.7578 C 33.3688 16.3922 32.9594 16.0953 32.5109 15.8672 C 32.0609 15.6391 31.5781 15.4719 31.0609 15.3625 C 30.5422 15.2547 30.0109 15.2 29.4656 15.2 C 28.8281 15.2 28.2453 15.275 27.7172 15.4219 C 27.1891 15.5703 26.7172 15.7609 26.3016 15.9953 C 25.8859 16.2297 25.5063 16.5047 25.1594 16.8234 C 24.8125 17.1422 24.5188 17.4625 24.2813 17.7813 L 24.2125 17.7813 C 24.2813 17.3375 24.3297 16.8391 24.3578 16.2859 C 24.3859 15.7328 24.4 15.0328 24.4 14.1844 L 24.4 7.5 L 24.4 7.5 Z" fill="#ffffff"></path>
		</g>
	</g>
</svg>